`                            __     __   __            __  __ 
                  .-----..--|  |.--|  | |  |--..---.-.|  ||  |
                  |  _  ||  _  ||  _  | |  _  ||  _  ||  ||  |
                  |_____||_____||_____| |_____||___._||__||__|
                                  -links.com   `                                                 

Public Enemies is a 2009 American crime film co-written and directed by Michael Mann. Set during the Great Depression, it focuses on the true story of FBI agent Melvin Purvis's attempt to stop criminals John Dillinger, Baby Face Nelson, and Pretty Boy Floyd. The film is an adaptation of Bryan Burrough's non-fiction book Public Enemies: America's Greatest Crime Wave and the Birth of the FBI, 1933–34. Christian Bale plays FBI agent Purvis, Johnny Depp plays Dillinger, Marion Cotillard plays Dillinger's girlfriend Billie Frechette, Stephen Graham plays Nelson, and Channing Tatum plays Floyd.

Screen Shots
 
http://i724.photobucket.com/albums/ww246/oddball-links/PublicEnemies/5.jpg
 
http://i724.photobucket.com/albums/ww246/oddball-links/PublicEnemies/4.jpg
 
http://i724.photobucket.com/albums/ww246/oddball-links/PublicEnemies/3.jpg
 
http://i724.photobucket.com/albums/ww246/oddball-links/PublicEnemies/2.jpg
 
http://i724.photobucket.com/albums/ww246/oddball-links/PublicEnemies/1.jpg

General
Complete name                    : Public Enemies 
Format                           : AVI
Format/Info                      : Audio Video Interleave
File size                        : 1.10 GiB
Duration                         : 2h 14mn
Overall bit rate                 : 1 175 Kbps

Video
Format                           : MPEG-4 Visual
Format profile                   : Streaming Video@L1
Format settings, BVOP            : Yes
Format settings, QPel            : No
Format settings, GMC             : No warppoints
Format settings, Matrix          : Default
Muxing mode                      : Packed bitstream
Codec ID                         : XVID
Codec ID/Hint                    : XviD
Duration                         : 2h 14mn
Bit rate                         : 972 Kbps
Width                            : 1 024 pixels
Height                           : 582 pixels
Display aspect ratio             : 16/9
Frame rate                       : 29.970 fps
Resolution                       : 24 bits
Colorimetry                      : 4:2:0
Scan type                        : Progressive
Bits/(Pixel*Frame)               : 0.054
Stream size                      : 931 MiB (83%)
Writing library                  : XviD 1.1.0 (UTC 2005-11-22)

Audio
Format                           : MPEG Audio
Format version                   : Version 1
Format profile                   : Layer 3
Codec ID                         : 55
Codec ID/Hint                    : MP3
Duration                         : 2h 14mn
Bit rate mode                    : Constant
Bit rate                         : 192 Kbps
Channel(s)                       : 2 channels
Sampling rate                    : 44.1 KHz
Resolution                       : 16 bits
Video delay                      : 26ms
Stream size                      : 184 MiB (16%)
Alignment                        : Split accross interleaves
Interleave, duration             : 33 ms (1.00 video frame)
Title                            : Audio Stream
Writing library                  : LAME3.92

For more oddball torrents  http://thepiratebay.org/user/oddball-links `                                                                                                            Please seed after downloading `                                                                                            :::===  :::===== :::===== :::====       :::= === :::====  :::====
        :::     :::      :::      :::  ===      :::===== :::  === :::====
         =====  ======   ======   ===  ===      ======== ===  ===   ===  
            === ===      ===      ===  ===      === ==== ===  ===   ===  
        ======  ======== ======== =======       ===  ===  ======    ===  
                                                                         
                  :::=====  :::====  :::===== :::===== :::==== 
                  :::       :::  === :::      :::      :::  ===
                  === ===== =======  ======   ======   ===  ===
                  ===   === === ===  ===      ===      ===  ===
                   =======  ===  === ======== ======== =======	